<?xml version="1.0" encoding="utf-8"?>
<!-- Generator: Adobe Illustrator 27.5.0, SVG Export Plug-In . SVG Version: 6.00 Build 0)  -->
<svg version="1.1" xmlns="http://www.w3.org/2000/svg" xmlns:xlink="http://www.w3.org/1999/xlink" x="0px" y="0px"
	 viewBox="0 0 750 500" style="enable-background:new 0 0 750 500;" xml:space="preserve">
<g id="BACKGROUND">
	<rect style="opacity:0.6;fill:#4BAF9C;" width="750" height="500"/>
</g>
<g id="OBJECTS">
	<g>
		<ellipse style="opacity:0.2;fill:#161826;" cx="597.997" cy="468.686" rx="74.947" ry="12.49"/>
		<ellipse style="opacity:0.2;fill:#161826;" cx="367.951" cy="469.625" rx="74.947" ry="12.49"/>
		<ellipse style="opacity:0.2;fill:#161826;" cx="156.017" cy="469.625" rx="74.947" ry="12.49"/>
	</g>
	<g>
		<g>
			<g>
				<g>
					<path style="fill:#FFFFFF;" d="M574.639,442.461l-0.981,22.033c0,0-60.411,23.731-12.624-3.032l0.682-35.704L574.639,442.461z"
						/>
					<path style="fill:#002E46;" d="M559.223,460.805l2.249,3.467l13.504-4.609l0.089,5.256
						C575.064,464.919,507.18,492.349,559.223,460.805z"/>
				</g>
				<g>
					<path style="fill:#FFFFFF;" d="M607.827,433.702l1.338,31.437c0,0,65.358,18.359,13.148-3.715l-1.894-44.376L607.827,433.702z"
						/>
					<path style="fill:#002E46;" d="M607.438,462.183l14.075,3.268l2.547-4.862c0,0,21.709,8.156,21.064,12.875
						c-0.645,4.719-38.141-6.962-38.141-6.962L607.438,462.183z"/>
				</g>
			</g>
			<g>
				<path style="fill:#002E46;" d="M567.148,237.882c0,0-6.005,13.402-4.894,36.518c0,0,7.558,19.035,32.759,28.696
					c0,0,6.912,123.421,8.743,149.558c0,0,11.601,2.312,21.093,0.17c0,0,20.604-161.958,0.562-203.162L567.148,237.882z"/>
				<path style="opacity:0.3;fill:#001C28;" d="M567.148,237.882c0,0-6.005,13.402-4.894,36.518c0,0,7.558,19.035,32.759,28.696
					c0,0,6.912,123.421,8.743,149.558c0,0,11.601,2.312,21.093,0.17c0,0,20.604-161.958,0.562-203.162L567.148,237.882z"/>
				<path style="fill:#002E46;" d="M623.119,240.311c0,0,7.603,20.642,8.507,40.544c0,0-5.536,9.198-30.992,18.163
					c0,0-21.005,129.671-23.554,155.748c0,0-9.647,1.585-19.077-0.817c0,0-14.364-160.231,6.87-200.281L623.119,240.311z"/>
			</g>
		</g>
		<g>
			<g>
				<g>
					<path style="fill:#965450;" d="M693.632,169.371c0,0,29.14-44.921,7.328-16.291c0,0,16.114-26.591-2.07-2.431
						c0,0,16.615-26.984-3.13-1.923c0,0,15.102-24.986-5.254,1.365c0,0-9.632-20.337-3.206,3.975l-6.729,9.821L693.632,169.371z"/>
					<g>
						<path style="fill:#124D5B;" d="M582.86,166.555c0,0,16.092,25.235,26.471,29.865c10.379,4.63,53.789,21.171,59.029,17.135
							c5.24-4.036,31.622-45.964,31.622-45.964l-19.894-9.809l-21.622,28.535c0,0-22.848-14.971-31.227-17.116
							C618.86,167.055,582.86,166.555,582.86,166.555z"/>
						<path style="opacity:0.2;fill:#161826;" d="M582.86,166.555c0,0,16.092,25.235,26.471,29.865
							c10.379,4.63,53.789,21.171,59.029,17.135c5.24-4.036,31.622-45.964,31.622-45.964l-19.894-9.809l-21.622,28.535
							c0,0-22.848-14.971-31.227-17.116C618.86,167.055,582.86,166.555,582.86,166.555z"/>
						<path style="fill:#FFFFFF;" d="M698.915,169.308c0.676-1.084,1.067-1.717,1.067-1.717l-19.894-9.809l-1.261,1.664
							L698.915,169.308z"/>
					</g>
				</g>
				<g>
					<g>
						<path style="fill:#76413B;" d="M576.436,167.506c-0.553,0.537-3.827,1.67-7.721,2.882c1.115,3.287,2.377,6.589,4.499,8.981
							c3.692,4.162,10.063,6.404,15.367,6.506c9.673,0.185,21.772-6.043,22.611-15.068c-2.995-1.187-12.802-2.826-13.6-2.949
							c-2.777-0.426-1.597-20.059-1.597-20.059l-21.443-2.475C574.552,145.326,577.923,166.063,576.436,167.506z"/>
						<path style="fill:#633633;" d="M597.111,167.556c-7.19-0.224-14.26-1.226-20.349-4.238c-0.337-6.463-2.21-17.992-2.21-17.992
							l21.443,2.474C595.995,147.8,594.96,165.024,597.111,167.556z"/>
					</g>
					<g>
						<path style="fill:#124D5B;" d="M553.693,292.055c6.292,4.436,11.725,5.79,18.7,6.171c10.145,0.554,20.494,0.408,30.641-0.025
							c1.951-0.083,3.889-0.203,5.819-0.347l0.2-21.948l2.37,21.723c8.811-0.79,13.26-3.397,21.603-5.573
							c-3.126-35.442-2.667-90.333-8.667-123.236l-18.875-2.764l-0.434-4.959l-8.705,0.807l-1.861,1.777l0.239,10.505l-4.074,2.313
							l-1.541-11.568l-2.128-1.288l-13.643-0.978l-0.217,5.262l-24.762,3.937C548.36,171.864,556.002,254.773,553.693,292.055z"/>
						<g>
							<path style="fill:#FFFFFF;" d="M573.693,212.055"/>
							
								<path style="fill:none;stroke:#FFFFFF;stroke-width:2;stroke-linecap:round;stroke-linejoin:round;stroke-miterlimit:10;" d="
								M543.027,272.388c0,0,1.333-15.333,10.333-27c0,0-5,10.667-5.333,24.333"/>
						</g>
						<g>
							<path style="fill:none;stroke:#FFFFFF;stroke-width:0.7947;stroke-miterlimit:10;" d="M605.051,161.096
								c-1.75,0.25-4.235,0.206-8.316,0.834c-1.625,0.25-2.319,1.669-2.215,2.664c0.043,3.256,0.117,6.447,0.204,9.59"/>
							<g>
								<path style="fill:none;stroke:#FFFFFF;stroke-width:1.0348;stroke-miterlimit:10;" d="M573.339,162.665
									c7.021,0.39,6.564,0.763,13.564,0.763c1,0,2,1,2,2c0.503,3.271,0.943,6.479,1.351,9.642
									c0.354,2.749,6.555-3.117,6.881-0.425c0.79,6.519,1.28,29.013,2.316,35.436"/>
								<path style="fill:#FFFFFF;" d="M591.809,180.435c0,0.895,0.726,1.621,1.621,1.621c0.895,0,1.621-0.726,1.621-1.621
									s-0.726-1.621-1.621-1.621C592.534,178.814,591.809,179.54,591.809,180.435z"/>
								<path style="fill:#FFFFFF;" d="M593.198,195.027c0,0.895,0.726,1.621,1.621,1.621c0.895,0,1.621-0.726,1.621-1.621
									c0-0.896-0.726-1.621-1.621-1.621C593.924,193.405,593.198,194.131,593.198,195.027z"/>
							</g>
						</g>
					</g>
				</g>
			</g>
			<g>
				<g>
					<path style="fill:#FFFFFF;" d="M567.693,197.388l56-4l10,72c0,0,5.667,65.667,6.667,120.667l-78.667,2.333
						C561.693,388.388,577.027,258.055,567.693,197.388z"/>
					<path style="opacity:0.1;fill:#061B38;" d="M634.334,273.2c-5.48,12.021-13.852,23.001-24.347,31.058
						c-11.304,8.678-24.674,10.998-38.573,12.192c-1.077,0.092-2.179,0.207-3.298,0.332c-2.663,39.638-6.423,71.607-6.423,71.607
						l78.667-2.333C639.568,342.47,635.845,292.195,634.334,273.2z"/>
				</g>
				<polygon style="fill:#FFFFFF;" points="614.235,166.805 616.693,195.055 618.61,196.18 616.36,167.305 				"/>
				<path style="fill:none;stroke:#FFFFFF;stroke-width:2;stroke-linecap:round;stroke-linejoin:round;stroke-miterlimit:10;" d="
					M583.027,248.055c-1,0-19,1.667-29.667-2.667c-10.667-4.333-8.333-31,0,0c0,0-13.333-8.667-13.667-3.667
					c-0.338,5.066,14.333,4,14.333,4"/>
				<path style="fill:#FFFFFF;" d="M560.36,169.722c0,0,9.333,22.333,11,29.667l2.667-0.333l-11.333-30L560.36,169.722z"/>
			</g>
			<g>
				<path style="fill:#965450;" d="M536.216,241.506l1.82,1.371l15.923,29.647c0,0,1.149-6.504,2.754-6.414
					c1.604,0.09,25.632,8.361,0.287,2.626c0,0,33.446,11.759-0.415,3.5c0,0,28.78,10.409,0.373,3.415c0,0,25.542,9.966,0.521,2.335
					c0,0-0.39,6.156-5.844,4.892c-5.454-1.264-38.024-43.349-35.776-47.823C518.108,230.581,536.216,241.506,536.216,241.506z"/>
				<g>
					<path style="fill:#124D5B;" d="M561.097,196.103c-2.286-8.545-3.941-17.325-6.087-25.835
						c-5.819,0.119-11.294,1.023-14.373,3.532c-8.811,7.177-30.517,55.258-29.277,61.755c1.24,6.497,23,42,23,42l17.724-13.336
						l-15.724-32.164l20.5-30L561.097,196.103z"/>
					<path style="fill:#FFFFFF;" d="M533.308,275.829c0.663,1.092,1.052,1.726,1.052,1.726l17.724-13.336l-0.917-1.875
						L533.308,275.829z"/>
				</g>
			</g>
		</g>
		<g>
			<g>
				<g>
					<path style="fill:#FFFFFF;" d="M562.645,121.356c0,0-8.289,5.067-1.963,15.495
						C560.682,136.851,567.696,134.062,562.645,121.356z"/>
					<path style="opacity:0.2;fill:#061B38;" d="M562.645,121.356c0,0-8.289,5.067-1.963,15.495
						C560.682,136.851,567.696,134.062,562.645,121.356z"/>
					<path style="fill:#FFFFFF;" d="M562.052,119.114c0,0-13.41,1.118-11.92,16.39C550.132,135.503,560.562,136.248,562.052,119.114
						z"/>
					<path style="opacity:0.1;fill:#061B38;" d="M562.052,119.114c0,0-13.41,1.118-11.92,16.39
						C550.132,135.503,560.562,136.248,562.052,119.114z"/>
				</g>
				<g>
					<g>
						<path style="fill:#965450;" d="M572.855,111.243c0,0,6.732-14.253,22.137-10.295c15.405,3.958,16.834,19.809,17.997,33.681
							c1.163,13.872-3.989,26.038-16.281,26.816C586.029,162.121,567.616,158.958,572.855,111.243z"/>
						<path style="fill:#965450;" d="M572.674,127.281c0,0-0.783-2.607-4.791-0.013c-5.085,3.291-0.865,16.686,5.109,15.681
							C578.966,141.944,572.674,127.281,572.674,127.281z"/>
					</g>
					<g>
						<path style="fill:#1F2733;" d="M574.549,135.995c0.829-0.141,1.657-0.284,2.486-0.426c-0.035-3.803-0.207-7.718-0.649-10.826
							c5.544-8.044,6.827-12.728,4.156-23.014c-6.131-1.533-4.675,3.31-8.866-1.832c4.914-0.198-1.899-2.375-2.224-2.296
							c-14.008,3.443-9.951,20.92-3.65,37.163c0,0-0.759-9.074,4.992-7.861C572.292,127.221,573.57,131.342,574.549,135.995z"/>
						<path style="fill:#1F2733;" d="M573.477,131.338c0,0-2.239,18.901,4.627,27.015c4.713,5.57,23.341,8.166,31.37,3.13
							c4.243-2.661,4.615-10.407,3.397-17.68c0,0-1.695,8.358-3.533,7.677c-2.414-0.894,0.791-8.642-3.266-8.642
							c-4.057,0-19.643-4.348-20.891,2.518c-1.248,6.866-4.4,5.367-5.648,2.246c-1.248-3.121-0.681-16.595-3.178-26.27
							C573.858,111.657,573.477,131.338,573.477,131.338z"/>
					</g>
				</g>
				<g>
					<path style="fill:#FFFFFF;" d="M560.189,120.976c0,0-4.47-17.88,2.607-23.84c7.077-5.96,47.307-15.272,46.562,16.39
						C609.358,113.526,589.244,116.134,560.189,120.976z"/>
					<path style="opacity:0.1;fill:#061B38;" d="M580.611,106.1c-1.723-4.593-2.602-9.41-2.972-14.303
						c-6.748,1.125-12.545,3.405-14.842,5.34c-7.077,5.96-2.607,23.84-2.607,23.84c10.865-1.811,20.478-3.309,28.258-4.475
						C585.056,114.09,582.328,110.677,580.611,106.1z"/>
				</g>
			</g>
			<g>
				<g>
					<path style="fill:#1F2733;" d="M595.652,122.17c0,0-0.237-0.077-0.651-0.212c-0.405-0.133-0.98-0.303-1.645-0.483
						c-0.334-0.09-0.695-0.169-1.068-0.253c-0.369-0.104-0.777-0.117-1.17-0.209c-0.407-0.017-0.813-0.116-1.231-0.105
						c-0.208-0.008-0.417-0.009-0.625-0.027l-0.625,0.035c-0.421-0.018-0.826,0.095-1.239,0.129
						c-0.41,0.051-0.799,0.188-1.197,0.256c-0.388,0.103-0.757,0.246-1.126,0.35c-0.37,0.103-0.686,0.29-1.015,0.403
						c-0.314,0.138-0.633,0.231-0.881,0.374c-0.253,0.134-0.492,0.236-0.687,0.325c-0.393,0.176-0.643,0.263-0.643,0.263
						s0.11-0.225,0.347-0.595c0.12-0.184,0.263-0.414,0.449-0.661c0.17-0.266,0.418-0.507,0.696-0.769
						c0.284-0.254,0.559-0.589,0.945-0.811c0.376-0.235,0.76-0.528,1.21-0.732c0.46-0.177,0.927-0.415,1.442-0.522
						c0.514-0.108,1.039-0.241,1.577-0.241l0.802-0.018c0.265,0.02,0.527,0.058,0.787,0.087c0.524,0.038,1.011,0.221,1.485,0.34
						c0.457,0.181,0.901,0.345,1.284,0.572c0.398,0.195,0.743,0.432,1.049,0.664C595.163,121.241,595.652,122.17,595.652,122.17z"/>
				</g>
				<g>
					<path style="fill:#1F2733;" d="M611.628,121.878c0,0-0.738-0.421-1.71-0.921c-0.498-0.237-1.054-0.489-1.632-0.692
						c-0.294-0.078-0.584-0.19-0.883-0.236c-0.148-0.027-0.298-0.048-0.444-0.087l-0.447-0.027
						c-0.297-0.064-0.594,0.024-0.894,0.004c-0.297,0.038-0.593,0.107-0.894,0.137c-0.289,0.097-0.58,0.176-0.869,0.247
						c-0.287,0.105-0.559,0.205-0.809,0.297c-0.259,0.09-0.508,0.175-0.714,0.281c-0.208,0.1-0.408,0.173-0.571,0.238
						c-0.331,0.125-0.541,0.188-0.541,0.188s0.073-0.192,0.239-0.514c0.085-0.158,0.187-0.357,0.324-0.568
						c0.124-0.225,0.295-0.454,0.52-0.671c0.217-0.226,0.444-0.492,0.733-0.72c0.304-0.209,0.638-0.426,0.996-0.634
						c0.39-0.148,0.798-0.325,1.238-0.419c0.449-0.055,0.911-0.157,1.375-0.095c0.231,0.023,0.464,0.04,0.691,0.076
						c0.223,0.053,0.441,0.123,0.657,0.186c0.433,0.124,0.814,0.347,1.173,0.549c0.698,0.448,1.229,0.987,1.594,1.501
						c0.372,0.508,0.594,0.982,0.715,1.327C611.6,121.667,611.628,121.878,611.628,121.878z"/>
				</g>
				<g>
					<path style="fill:#542E2B;" d="M600.832,122.696c0.787,1.431,1.459,2.913,2.066,4.415c0.617,1.5,1.145,3.032,1.647,4.573
						c0.244,0.773,0.453,1.556,0.682,2.334c0.241,0.774,0.402,1.573,0.59,2.362l0.275,1.186c0.103,0.392,0.15,0.8,0.223,1.2
						c0.13,0.805,0.284,1.603,0.389,2.411l0.112,0.864l-0.804-0.023c-1.566-0.045-3.132-0.119-4.699-0.21
						c-1.567-0.109-3.133-0.21-4.701-0.399c1.563-0.223,3.127-0.359,4.691-0.502c1.564-0.124,3.128-0.233,4.693-0.313l-0.692,0.841
						c-0.422-1.546-0.771-3.096-1.186-4.643l-0.592-2.324c-0.197-0.776-0.413-1.547-0.594-2.328l-0.583-2.335l-0.552-2.349
						C601.448,125.884,601.1,124.309,600.832,122.696z"/>
				</g>
				<g>
					<path style="fill:#542E2B;" d="M571.704,140.202c-0.381-0.233-0.726-0.523-1.038-0.856c-0.309-0.332-0.605-0.709-0.767-1.184
						c-0.079-0.234-0.144-0.494-0.123-0.766c-0.004-0.137,0.011-0.273,0.06-0.405c0.039-0.133,0.073-0.272,0.151-0.383
						c0.125-0.253,0.301-0.448,0.49-0.631c0.186-0.184,0.398-0.307,0.606-0.454l-0.25,0.37c0.053-1.005,0.073-2.035,0.049-3.039
						c-0.038-0.993-0.096-2.032-0.399-2.862c-0.077-0.198-0.174-0.376-0.28-0.485c-0.109-0.105-0.196-0.15-0.352-0.157l-0.125,0.012
						l-0.032,0.002c0.04-0.014-0.019,0.004-0.019,0.004l-0.093,0.027c-0.119,0.037-0.261,0.069-0.362,0.111
						c-0.193,0.076-0.389,0.172-0.588,0.294c-0.184,0.132-0.36,0.281-0.508,0.461c-0.146,0.18-0.292,0.374-0.393,0.597
						c-0.218,0.439-0.329,0.945-0.368,1.465c-0.135-0.509-0.134-1.06-0.008-1.596c0.057-0.271,0.163-0.535,0.299-0.788
						c0.144-0.249,0.33-0.473,0.539-0.68c0.214-0.194,0.457-0.368,0.739-0.507c0.133-0.07,0.243-0.106,0.365-0.161l0.09-0.038
						c0.027-0.01,0.002-0.004,0.073-0.027l0.063-0.016c0.085-0.02,0.169-0.043,0.257-0.057c0.363-0.062,0.807,0.081,1.076,0.331
						c0.278,0.244,0.44,0.526,0.573,0.799c0.257,0.549,0.361,1.098,0.44,1.637c0.075,0.54,0.12,1.075,0.122,1.608
						c0.017,1.067-0.055,2.111-0.202,3.168l-0.031,0.221l-0.219,0.149c-0.152,0.103-0.343,0.175-0.48,0.287
						c-0.142,0.109-0.277,0.223-0.365,0.362c-0.064,0.062-0.083,0.14-0.117,0.213c-0.041,0.072-0.067,0.15-0.075,0.235
						c-0.046,0.162-0.031,0.349-0.002,0.535c0.07,0.373,0.223,0.773,0.444,1.139C571.16,139.508,571.42,139.86,571.704,140.202z"/>
				</g>
				<path style="fill:#FFFFFF;" d="M588.21,145.512c0,0,10.412,9.258,18.463,0.257"/>
				<g>
					<path style="fill:#1F2733;" d="M586.455,129.966c0,0-0.02-0.22-0.026-0.605c-0.003-0.385,0.005-0.936,0.106-1.597
						c0.103-0.659,0.265-1.442,0.718-2.237c0.227-0.389,0.52-0.811,0.986-1.109c0.221-0.15,0.486-0.28,0.76-0.345
						c0.156-0.028,0.238-0.078,0.458-0.08l0.322-0.013c0.585,0.035,1.171,0.253,1.566,0.58c0.41,0.323,0.713,0.724,0.927,1.114
						c0.447,0.784,0.635,1.562,0.744,2.221c0.113,0.66,0.122,1.215,0.117,1.6c-0.006,0.386-0.034,0.606-0.034,0.606
						s-0.079-0.205-0.216-0.563c-0.135-0.355-0.325-0.86-0.571-1.441c-0.252-0.575-0.56-1.24-0.985-1.818
						c-0.198-0.305-0.468-0.53-0.717-0.732c-0.133-0.088-0.266-0.169-0.41-0.211c-0.161-0.064-0.211-0.053-0.394-0.082l-0.323,0.002
						c0.003-0.015-0.12,0.025-0.174,0.031c-0.142,0.024-0.275,0.085-0.403,0.165c-0.257,0.152-0.509,0.391-0.71,0.681
						c-0.422,0.567-0.71,1.246-0.957,1.823C586.768,129.162,586.455,129.966,586.455,129.966z"/>
				</g>
				<g>
					<path style="fill:#1F2733;" d="M603.52,128.816c0,0-0.111-0.838,0.021-2.101c0.071-0.631,0.195-1.374,0.539-2.155
						c0.178-0.384,0.409-0.8,0.802-1.144c0.191-0.174,0.438-0.32,0.703-0.419c0.162-0.039,0.224-0.083,0.472-0.105l0.308-0.013
						c0.626,0.033,1.145,0.342,1.495,0.685c0.361,0.351,0.568,0.76,0.755,1.139c0.345,0.772,0.484,1.513,0.562,2.144
						c0.155,1.264,0.025,2.105,0.025,2.105s-0.273-0.778-0.684-1.946c-0.217-0.564-0.472-1.221-0.827-1.827
						c-0.177-0.299-0.395-0.575-0.618-0.79c-0.238-0.211-0.481-0.304-0.681-0.33l-0.309,0.003c0.044-0.005-0.088,0.028-0.126,0.033
						c-0.116,0.041-0.234,0.097-0.344,0.193c-0.219,0.186-0.445,0.443-0.613,0.746c-0.35,0.6-0.594,1.265-0.804,1.832
						c-0.2,0.583-0.367,1.069-0.483,1.409C603.591,128.618,603.52,128.816,603.52,128.816z"/>
				</g>
			</g>
		</g>
	</g>
	<g>
		<g>
			<g>
				<path style="fill:#76413B;" d="M354.551,148.02c0,0-11.099-4.521-12.132,7.411c-1.033,11.932,2.801,20.405-8.739,18.289
					c0,0,9.101,9.127,15.856,1.663C356.291,167.919,358.55,155.59,354.551,148.02z"/>
				<g>
					<path style="fill:#FFA099;" d="M358.005,179.694c-0.495,0.48-3.425,1.494-6.909,2.579c0.998,2.941,2.127,5.896,4.026,8.037
						c3.304,3.724,9.006,5.731,13.751,5.822c8.656,0.165,19.483-5.408,20.234-13.484c-2.68-1.062-11.456-2.529-12.17-2.639
						c-2.485-0.381-1.429-17.95-1.429-17.95l-19.189-2.214C356.319,159.845,359.335,178.402,358.005,179.694z"/>
					<path style="fill:#FF8680;" d="M376.506,179.738c-6.434-0.201-12.761-1.097-18.209-3.792c-0.302-5.784-2.771-20.98-2.771-20.98
						l19.982,7.094C375.508,162.059,374.581,177.472,376.506,179.738z"/>
				</g>
				<g>
					<path style="fill:#FFA099;" d="M355.533,126.183c0,0,6.305-13.35,20.734-9.643c14.429,3.707,15.767,18.554,16.857,31.547
						c1.09,12.993-3.736,24.388-15.249,25.117C367.872,173.837,350.626,170.874,355.533,126.183z"/>
					<path style="fill:#FFA099;" d="M355.363,141.205c0,0-0.733-2.442-4.488-0.012c-4.762,3.082-0.81,15.628,4.785,14.687
						C361.256,154.938,355.363,141.205,355.363,141.205z"/>
				</g>
				<g>
					<path style="fill:#76413B;" d="M352.346,113.407c0.307-0.065,6.686,1.965,2.083,2.15c3.925,4.816,2.561,0.28,8.304,1.715
						c2.502,9.635,1.3,14.021-3.892,21.556c1.207,8.49-2.478,10.807-2.478,10.807s0.561-8.082-2.76-8.783
						c-5.386-1.136-4.676,7.363-4.676,7.363C339.441,140.857,337.189,116.639,352.346,113.407z"/>
					<path style="fill:#76413B;" d="M360.621,123.221c0,0,12.733,10.637,33.889,3.472l-2.159-1.878l3.432,1.644
						c0,0-2.18-19.49-23.14-22.164c-16.206-2.067-21.503,11.852-21.503,11.852L360.621,123.221z"/>
				</g>
			</g>
			<g>
				<g>
					<path style="fill:#1F2733;" d="M376.885,136.418c0,0-0.215-0.094-0.588-0.23c-0.368-0.143-0.894-0.328-1.513-0.52
						c-0.31-0.097-0.647-0.185-0.999-0.273c-0.347-0.108-0.732-0.133-1.106-0.227c-0.387-0.025-0.775-0.125-1.175-0.119l-0.6-0.031
						l-0.601,0.031c-0.405-0.015-0.795,0.092-1.19,0.131c-0.394,0.053-0.764,0.19-1.143,0.263c-0.369,0.105-0.716,0.252-1.062,0.361
						c-0.348,0.107-0.641,0.295-0.944,0.413c-0.291,0.141-0.584,0.24-0.809,0.385c-0.231,0.135-0.446,0.242-0.623,0.334
						c-0.356,0.18-0.576,0.276-0.576,0.276s0.117-0.197,0.351-0.529c0.119-0.164,0.262-0.369,0.442-0.59
						c0.165-0.238,0.405-0.451,0.668-0.686c0.27-0.225,0.531-0.527,0.891-0.723c0.352-0.209,0.71-0.47,1.126-0.652
						c0.425-0.156,0.856-0.37,1.329-0.466c0.473-0.095,0.954-0.217,1.447-0.216l0.736-0.018l0.723,0.076
						c0.482,0.031,0.93,0.195,1.369,0.298c0.422,0.162,0.835,0.302,1.192,0.504c0.37,0.173,0.696,0.381,0.984,0.586
						c0.583,0.398,1.004,0.81,1.275,1.116C376.764,136.216,376.885,136.418,376.885,136.418z"/>
				</g>
				<g>
					<path style="fill:#1F2733;" d="M391.849,136.862c0,0-0.637-0.433-1.528-0.947c-0.229-0.12-0.467-0.255-0.724-0.376
						c-0.248-0.138-0.532-0.222-0.801-0.343c-0.281-0.084-0.561-0.198-0.852-0.249c-0.145-0.029-0.291-0.052-0.435-0.09l-0.44-0.03
						c-0.293-0.06-0.585,0.024-0.879,0.012c-0.296,0.052-0.586,0.103-0.868,0.153c-0.275,0.103-0.556,0.181-0.828,0.26
						c-0.266,0.113-0.517,0.221-0.749,0.32c-0.24,0.096-0.466,0.188-0.652,0.297c-0.189,0.104-0.367,0.183-0.513,0.252
						c-0.295,0.134-0.48,0.205-0.48,0.205s0.081-0.169,0.25-0.453c0.087-0.14,0.19-0.315,0.326-0.503
						c0.124-0.201,0.29-0.402,0.504-0.594c0.207-0.199,0.423-0.436,0.696-0.632c0.283-0.183,0.588-0.382,0.919-0.565
						c0.357-0.128,0.73-0.284,1.129-0.368c0.407-0.045,0.826-0.139,1.246-0.081c0.209,0.021,0.42,0.036,0.626,0.067
						c0.202,0.048,0.4,0.11,0.597,0.165c0.394,0.109,0.743,0.308,1.073,0.487c0.64,0.405,1.142,0.879,1.497,1.335
						C391.684,136.093,391.849,136.862,391.849,136.862z"/>
				</g>
				<g>
					<path style="fill:#D16D6D;" d="M380.943,137.213c0.443,1.027,0.829,2.049,1.204,3.07l1.09,3.048
						c0.193,0.5,0.347,1.014,0.542,1.51l0.554,1.498l0.595,1.472c0.185,0.499,0.434,0.958,0.631,1.451l0.201,0.505l-0.292,0.28
						c-0.758,0.727-1.536,1.436-2.324,2.134c-0.801,0.687-1.597,1.378-2.454,2.013c0.574-0.899,1.208-1.741,1.837-2.589
						c0.641-0.836,1.294-1.661,1.966-2.468l-0.091,0.786c-0.315-0.468-0.604-0.958-0.865-1.455
						c-0.285-0.489-0.491-1.009-0.723-1.519c-0.209-0.517-0.429-1.032-0.589-1.564c-0.177-0.528-0.345-1.056-0.487-1.593
						c-0.278-1.074-0.498-2.159-0.64-3.257C380.96,139.44,380.879,138.332,380.943,137.213z"/>
				</g>
				<g>
					<path style="fill:#D16D6D;" d="M354.455,153.307c-0.347-0.228-0.663-0.506-0.946-0.821c-0.28-0.314-0.548-0.668-0.685-1.105
						c-0.067-0.215-0.121-0.451-0.098-0.694c-0.002-0.123,0.015-0.243,0.058-0.361c0.035-0.118,0.064-0.242,0.135-0.342
						c0.112-0.226,0.271-0.402,0.442-0.567c0.169-0.167,0.364-0.279,0.553-0.412l-0.187,0.277c0.058-0.946,0.082-1.911,0.061-2.857
						c-0.036-0.937-0.089-1.913-0.388-2.716c-0.161-0.405-0.377-0.662-0.686-0.653l-0.13,0.014l-0.033,0.003
						c0.069-0.028-0.001-0.001-0.001-0.001l-0.086,0.031l-0.343,0.124l-0.341,0.125l-0.246,0.184l-0.257,0.183l-0.208,0.258
						c-0.165,0.158-0.257,0.367-0.367,0.57c-0.103,0.206-0.165,0.437-0.222,0.666c-0.043,0.233-0.091,0.471-0.093,0.716
						c-0.053-0.238-0.079-0.486-0.072-0.735c0.015-0.246,0.036-0.502,0.106-0.746c0.08-0.242,0.138-0.501,0.298-0.713l0.217-0.332
						c0.094-0.096,0.201-0.186,0.305-0.279l0.32-0.272l0.327-0.163l0.326-0.161l0.082-0.04c0.033-0.013-0.015,0,0.083-0.033
						l0.056-0.014c0.075-0.017,0.149-0.039,0.228-0.049c0.32-0.055,0.703,0.073,0.938,0.294c0.243,0.216,0.388,0.471,0.507,0.719
						c0.23,0.501,0.326,1.008,0.397,1.507c0.068,0.501,0.108,0.998,0.112,1.494c0.016,0.993-0.046,1.969-0.175,2.953l-0.021,0.163
						l-0.166,0.115c-0.147,0.102-0.329,0.172-0.464,0.282c-0.139,0.108-0.271,0.222-0.358,0.363
						c-0.062,0.063-0.083,0.142-0.116,0.217c-0.041,0.074-0.062,0.154-0.068,0.239c-0.039,0.164-0.018,0.346,0.016,0.525
						c0.081,0.358,0.233,0.731,0.45,1.07C353.928,152.673,354.18,152.997,354.455,153.307z"/>
				</g>
				<path style="fill:#1F2733;" d="M366.915,142.737c0.032,1.907,0.579,3.444,1.221,3.433c0.642-0.011,1.136-1.565,1.104-3.472
					c-0.032-1.907-0.578-3.444-1.221-3.433C367.377,139.276,366.883,140.83,366.915,142.737z"/>
				<path style="fill:#1F2733;" d="M383.481,141.811c0.032,1.907,0.579,3.444,1.22,3.433c0.642-0.011,1.136-1.565,1.104-3.472
					c-0.032-1.907-0.578-3.444-1.221-3.433C383.943,138.349,383.448,139.904,383.481,141.811z"/>
				<path style="fill:#FFFFFF;" d="M371.077,157.914c0,0,8.911,6.942,15.025-0.679"/>
			</g>
			<g>
				<path style="fill:#FFFFFF;" d="M340.998,120.868c0,0,33.282,3.772,46.034-10.885c0,0-5.657-78.619-10.134-87.21
					c0,0-34.787-7.358-53.976,11.019L340.998,120.868z"/>
				<path style="opacity:0.1;fill:#061B38;" d="M382.399,90.447c-29.86-6.625-47.975-31.932-55.571-59.9
					c-1.357,0.982-2.665,2.058-3.905,3.246l18.076,87.076c0,0,33.283,3.772,46.034-10.885c0,0-0.567-7.882-1.484-18.923
					C384.501,90.881,383.452,90.68,382.399,90.447z"/>
			</g>
		</g>
		<g>
			<g>
				<g>
					<path style="fill:#4073AB;" d="M353.751,443.048l-0.934,20.989c0,0-57.549,22.607-12.026-2.889l0.649-34.013L353.751,443.048z"
						/>
					<path style="fill:#FFFFFF;" d="M339.065,460.523l2.142,3.303l12.864-4.39l0.084,5.007
						C354.156,464.443,289.488,490.573,339.065,460.523z"/>
				</g>
				<g>
					<path style="fill:#4073AB;" d="M385.367,434.704l1.275,29.947c0,0,62.262,17.489,12.525-3.539l-1.804-42.274L385.367,434.704z"
						/>
					<path style="fill:#FFFFFF;" d="M384.997,461.837l13.408,3.113l2.426-4.632c0,0,20.68,7.77,20.066,12.265
						c-0.614,4.495-36.334-6.633-36.334-6.633L384.997,461.837z"/>
				</g>
			</g>
			<g>
				<path style="fill:#002E46;" d="M346.615,248.161c0,0-5.72,12.768-4.663,34.788c0,0,7.2,18.133,31.207,27.336
					c0,0,6.585,117.574,8.329,142.473c0,0,11.051,2.202,20.094,0.162c0,0,19.628-154.286,0.536-193.538L346.615,248.161z"/>
				<path style="opacity:0.3;fill:#001C28;" d="M346.615,248.161c0,0-5.72,12.768-4.663,34.788c0,0,7.2,18.133,31.207,27.336
					c0,0,6.585,117.574,8.329,142.473c0,0,11.051,2.202,20.094,0.162c0,0,19.628-154.286,0.536-193.538L346.615,248.161z"/>
				<path style="fill:#002E46;" d="M399.934,250.475c0,0,7.243,19.665,8.104,38.624c0,0-5.273,8.762-29.524,17.302
					c0,0-20.01,123.529-22.438,148.37c0,0-9.19,1.51-18.173-0.778c0,0-13.683-152.641,6.545-190.793L399.934,250.475z"/>
			</g>
		</g>
		<g>
			<g>
				<g>
					<g>
						<path style="fill:#FFA099;" d="M448.05,226.477l0.811,0.463l1.814-0.434l6.295-5.242l-1.39,4.055h3.823
							c0,0,3.244-0.116,2.664,1.506c-0.579,1.622-2.242,1.285-2.242,1.285s2.937-0.126,2.937,0.569s-1.274,1.738-1.274,1.738
							s0.811,0.232,1.043,1.622c0.232,1.39-1.622,1.39-1.622,1.39s1.158,0.463,0.695,1.39c-0.463,0.927-5.097,3.012-15.987,1.738
							C434.728,235.281,448.05,226.477,448.05,226.477z"/>
						<path style="fill:#FF8680;" d="M451.406,235.355c-0.362-2.777-0.278-5.949-0.731-8.849l-7.989,1.035l3.397,9.851
							c0,0,2.483-0.285,5.521-0.707C451.537,236.242,451.464,235.8,451.406,235.355z"/>
					</g>
					<path style="fill:#213D56;" d="M468.212,178.813c-0.113-6.719-5.651-12.073-12.37-11.96c-6.719,0.113-12.073,5.651-11.96,12.37
						c0.111,6.601,5.462,11.872,12.021,11.948l0.393,23.32c-0.769,0.343-1.299,1.12-1.284,2.015l0.39,23.163
						c0.02,1.197,1.007,2.15,2.203,2.13c1.196-0.02,2.15-1.006,2.13-2.203l-0.39-23.163c-0.015-0.895-0.571-1.654-1.351-1.971
						l-0.394-23.381C463.671,190.307,468.317,185.075,468.212,178.813z"/>
					<path style="fill:#FFA099;" d="M461.461,226.511c0,0-1.513-2.099-7.202,0.121c-5.689,2.22,5.742,0.919,5.742,0.919
						l-0.546,0.471c0,0-7.187,1.045-6.066,1.765c1.121,0.72,6.933,0.345,6.933,0.345s-6.894,1.963-5.587,2.773
						s6.268-0.752,6.268-0.752s-8.451,2.729-6.409,3.341c2.042,0.612,6.27-0.66,6.27-0.66s-1.016-1.308-0.648-1.407
						s1.798-1.661,1.798-1.661l-2.041-0.52l2.187-1.792l-2.332-1.346L461.461,226.511z"/>
				</g>
				<g>
					<path style="fill:#FFFFFF;" d="M448.983,225.033l-31.614,3.238c0,0-5.601-32.399-10.224-39.718
						c-4.499-7.122-14.13-9.421-27.04-7.824c-1.59-2.215,3.275,7.695,5.22,12.435c2.423,5.906,14.471,52.04,18.872,54.866
						c3.552,2.28,32.815-3.937,46.056-9.661C449.489,233.93,449.021,229.479,448.983,225.033z"/>
					<path style="opacity:0.1;fill:#061B38;" d="M448.983,225.033l-31.614,3.238c0,0-2.525-14.594-5.582-26.406
						c-2.436,2.635-4.953,5.167-7.478,7.593c-3.569,3.428-7.258,6.728-10.996,9.976c4.061,13.406,8.549,27.097,10.884,28.596
						c3.552,2.28,32.815-3.937,46.056-9.66C449.489,233.93,449.021,229.479,448.983,225.033z"/>
				</g>
			</g>
			<g>
				<g>
					<path style="fill:#FFFFFF;" d="M337.816,209.73l9.362,23.301c0,0-19.868,49.321-18.342,98.972c0,0,11.222,10.85,59.505,10.037
						l0.485-53.134l5.711,52.34c0,0,15.841-1.647,24.762-4.557c0,0-6.64-107.521-21.927-154.87l-11.175-1.084l-1.374-6.639
						l-18.261,0.904l0.192,1.643l-13.643-0.978l-0.217,5.262l-13.427,3.937L337.816,209.73z"/>
					<path style="opacity:0.1;fill:#061B38;" d="M410.959,262.767c-18.838-6.085-39.006-15.729-52.245-30.937
						c-9.803-11.26-16.262-25.393-19.698-40.167l-1.2,18.066l9.362,23.301c0,0-19.868,49.321-18.342,98.972
						c0,0,11.222,10.85,59.505,10.037l0.485-53.134l5.711,52.34c0,0,15.841-1.647,24.762-4.557c0,0-2.148-34.756-6.809-73.448
						C411.98,263.082,411.466,262.931,410.959,262.767z"/>
				</g>
				<g>
					<path style="fill:none;stroke:#213D56;stroke-width:1.0348;stroke-miterlimit:10;" d="M353.112,175.665l23.475,0.985
						c0,0,17.045,110.795,11.754,165.391"/>
					<path style="fill:#002E46;" d="M377.357,209.581c0.013,0.786-0.613,1.433-1.399,1.447c-0.786,0.013-1.433-0.613-1.447-1.399
						c-0.013-0.786,0.613-1.433,1.399-1.446C376.696,208.17,377.344,208.796,377.357,209.581z"/>
					<path style="fill:#002E46;" d="M379.683,232.483c0.013,0.786-0.613,1.433-1.399,1.446c-0.786,0.013-1.433-0.613-1.447-1.399
						c-0.013-0.786,0.613-1.433,1.399-1.447S379.67,231.698,379.683,232.483z"/>
					<path style="fill:#002E46;" d="M381.764,256.208c0.013,0.786-0.613,1.433-1.399,1.447c-0.786,0.013-1.433-0.613-1.447-1.399
						c-0.013-0.786,0.613-1.433,1.399-1.447C381.103,254.796,381.751,255.423,381.764,256.208z"/>
					<path style="fill:#002E46;" d="M382.614,286.207c0.013,0.786-0.613,1.433-1.399,1.447c-0.786,0.013-1.433-0.613-1.447-1.399
						c-0.013-0.786,0.613-1.433,1.399-1.447C381.953,284.795,382.601,285.421,382.614,286.207z"/>
					<polyline style="fill:none;stroke:#213D56;stroke-width:1.0348;stroke-miterlimit:10;" points="366.755,176.642 
						366.55,174.748 384.823,174.096 					"/>
				</g>
			</g>
			<g>
				<path style="fill:#FFA099;" d="M337.268,299.402c0,0,16.545,35.745,7.27,10.947c0,0,10.239,20.452,2.324-0.336
					c0,0,10.287,20.919,2.424-1.195c0,0,9.636,19.194,1.209-3.806c0,0,16.436,1.974-1.218-3.554l-3.477-8.038L337.268,299.402z"/>
				<path style="fill:#FFFFFF;" d="M354.584,181.16c0,0-19.94,1.149-24.736,6.109c-4.795,4.96-14.107,41.6-11.654,62.107
					c1.893,15.824,16.219,45.67,18.794,53.758c0,0,6.111,0.71,13.338-4.697c0,0-14.573-49.679-13.944-55.466
					c0.629-5.786,12.35-39.239,12.35-39.239L354.584,181.16z"/>
			</g>
		</g>
	</g>
	<g>
		<g>
			<g>
				<g>
					<g>
						<path style="fill:#D88971;" d="M179.845,161.861c-1.672-1.65,3.579-27.474,3.579-27.474l-25.478,5.074
							c0,0-1.383,18.803-4.535,35.168c12.463,5.952,26.543,0.964,36.608-8.227C184.92,164.38,180.504,162.512,179.845,161.861z"/>
					</g>
					<line style="fill:none;stroke:#4073AB;stroke-miterlimit:10;" x1="138.969" y1="116.244" x2="149.948" y2="115.228"/>
					<g>
						<path style="fill:#F19C7C;" d="M192.899,107.74c0,0,4.299-16.399-22.41-20.837c-17.312-2.877-23.448,21.673-27.163,35.003
							c-3.715,13.33-2.748,29.109,13.297,31.74C168.652,155.617,183.509,161.486,192.899,107.74z"/>
						<path style="fill:#F19C7C;" d="M189.503,122.908c0,0,1.251-2.406,4.858,0.865c4.575,4.149-2.054,16.473-7.931,14.396
							C180.552,136.091,189.503,122.908,189.503,122.908z"/>
					</g>
				</g>
				<g>
					<path style="fill:#352C38;" d="M184.468,98.834c0,0-8.078,13.104,1.795,20.643l-3.59,10.95l3.77,1.615
						c0,0,1.616-13.104,6.821-9.155c0,0,6.642-12.565,7.898-20.823C202.418,93.808,184.468,98.834,184.468,98.834z"/>
					<g>
						<path style="fill:#FFFFFF;" d="M150.36,98.388c2,0,16,10,46.667,16.667l8.328-17.212c0,0,12.338,6.546,19.672-2.788
							c7.333-9.333,8.216-39.512-24.112-35.331c0,0-17.888-30.669-43.888-13.336c-26,17.333,3.333,31.333,3.333,31.333
							L150.36,98.388z"/>
						<path style="opacity:0.1;fill:#061B38;" d="M185.027,80.388c-9.944,0.737-18.054,0.451-24.785-2.421l-9.881,20.421
							c2,0,16,10,46.667,16.667l8.328-17.212C194.515,90.838,185.027,80.388,185.027,80.388z"/>
					</g>
				</g>
			</g>
			<g>
				<g>
					<g>
						<path style="fill:#352C38;" d="M163.787,111.144c0,0,0.168-0.215,0.53-0.504c0.179-0.15,0.406-0.314,0.68-0.486
							c0.277-0.157,0.59-0.361,0.96-0.5c0.364-0.164,0.77-0.323,1.217-0.434c0.442-0.14,0.931-0.187,1.437-0.262
							c0.509-0.007,1.044-0.072,1.584,0.017c0.27,0.034,0.545,0.059,0.817,0.105l0.807,0.213c0.542,0.135,1.044,0.392,1.535,0.63
							c0.496,0.231,0.91,0.589,1.33,0.882c0.405,0.316,0.726,0.702,1.046,1.034c0.332,0.324,0.522,0.736,0.743,1.064
							c0.211,0.337,0.399,0.643,0.499,0.957c0.122,0.298,0.203,0.57,0.273,0.788c0.136,0.439,0.18,0.698,0.18,0.698
							s-0.246-0.134-0.618-0.383c-0.184-0.126-0.412-0.271-0.643-0.453c-0.225-0.189-0.536-0.34-0.823-0.54
							c-0.31-0.175-0.589-0.424-0.946-0.589c-0.348-0.175-0.677-0.403-1.044-0.577c-0.38-0.15-0.732-0.37-1.126-0.508
							c-0.398-0.126-0.769-0.327-1.185-0.409l-0.602-0.185c-0.208-0.033-0.412-0.086-0.617-0.13
							c-0.405-0.116-0.826-0.126-1.229-0.219c-0.409-0.02-0.811-0.108-1.2-0.114c-0.39-0.031-0.767-0.062-1.12-0.07
							c-0.706-0.02-1.325-0.032-1.768-0.028C164.047,111.143,163.787,111.144,163.787,111.144z"/>
					</g>
					<g>
						<path style="fill:#352C38;" d="M147.551,108.649c0,0,0.29-0.842,1.237-1.732c0.472-0.441,1.115-0.873,1.903-1.189
							c0.403-0.127,0.826-0.285,1.286-0.319c0.229-0.022,0.46-0.051,0.694-0.062l0.707,0.055c0.476,0.024,0.921,0.21,1.362,0.345
							c0.425,0.173,0.805,0.421,1.172,0.637c0.327,0.27,0.626,0.546,0.896,0.809c0.253,0.279,0.441,0.582,0.624,0.846
							c0.185,0.263,0.32,0.522,0.408,0.771c0.104,0.237,0.172,0.455,0.231,0.63c0.115,0.352,0.152,0.562,0.152,0.562
							s-0.207-0.094-0.521-0.273c-0.156-0.091-0.347-0.195-0.542-0.328c-0.192-0.138-0.432-0.261-0.684-0.389
							c-0.251-0.128-0.496-0.294-0.767-0.43c-0.281-0.118-0.562-0.246-0.838-0.39c-0.3-0.081-0.587-0.2-0.881-0.29
							c-0.307-0.033-0.591-0.175-0.903-0.167l-0.456-0.058c-0.155,0.011-0.309,0.003-0.464,0.002
							c-0.309-0.018-0.621,0.046-0.933,0.057c-0.618,0.09-1.23,0.214-1.771,0.358c-0.542,0.141-1.019,0.28-1.359,0.387
							C147.752,108.588,147.551,108.649,147.551,108.649z"/>
					</g>
					<g>
						<path style="fill:#FC6A5A;" d="M157.171,114.465c-0.151,0.783-0.345,1.55-0.529,2.322c-0.177,0.774-0.384,1.537-0.589,2.301
							c-0.416,1.526-0.867,3.04-1.34,4.547c-0.229,0.756-0.489,1.501-0.732,2.252c-0.242,0.752-0.5,1.498-0.765,2.241
							c-0.514,1.493-1.067,2.972-1.636,4.447l-0.343-0.688c1.073,0.403,2.141,0.824,3.203,1.261
							c1.053,0.464,2.119,0.891,3.158,1.399c-1.138-0.207-2.249-0.496-3.372-0.747c-1.115-0.278-2.223-0.573-3.327-0.885
							l-0.505-0.143l0.161-0.546c0.448-1.515,0.913-3.025,1.416-4.521c0.244-0.751,0.494-1.5,0.761-2.243
							c0.266-0.743,0.514-1.493,0.794-2.232c0.545-1.482,1.111-2.957,1.712-4.421c0.303-0.731,0.605-1.462,0.937-2.183
							C156.5,115.905,156.814,115.177,157.171,114.465z"/>
					</g>
					<g>
						<path style="fill:#FC6A5A;" d="M188.217,135.719c0.352-0.272,0.684-0.563,0.979-0.878c0.295-0.314,0.535-0.674,0.681-1.034
							c0.068-0.18,0.119-0.365,0.105-0.539c0.01-0.088-0.005-0.173-0.032-0.255c-0.018-0.083-0.03-0.166-0.083-0.241
							c-0.064-0.16-0.187-0.3-0.311-0.438c-0.049-0.075-0.145-0.127-0.216-0.191l-0.224-0.187l-0.169-0.141l0.009-0.212
							c0.044-1.065,0.161-2.105,0.369-3.151c0.098-0.523,0.238-1.041,0.41-1.557c0.174-0.514,0.385-1.032,0.738-1.515
							c0.184-0.238,0.405-0.477,0.722-0.642c0.313-0.173,0.734-0.198,1.057-0.082c0.344,0.128,0.529,0.279,0.76,0.429
							c0.247,0.177,0.456,0.382,0.636,0.602c0.173,0.231,0.321,0.477,0.427,0.741c0.096,0.267,0.162,0.541,0.179,0.816
							c0.045,0.547-0.039,1.09-0.252,1.57c0.068-0.517,0.052-1.037-0.083-1.512c-0.06-0.239-0.17-0.458-0.284-0.665
							c-0.118-0.206-0.268-0.387-0.431-0.552c-0.178-0.158-0.36-0.293-0.545-0.406c-0.213-0.115-0.467-0.253-0.62-0.283
							c-0.33-0.071-0.59,0.115-0.846,0.493c-0.474,0.764-0.725,1.778-0.939,2.755c-0.204,0.989-0.361,2.01-0.477,3.014l-0.16-0.352
							l0.268,0.256c0.085,0.092,0.182,0.161,0.251,0.276c0.153,0.207,0.299,0.418,0.381,0.682c0.059,0.12,0.075,0.257,0.09,0.393
							c0.026,0.135,0.024,0.269-0.004,0.402c-0.024,0.268-0.13,0.511-0.249,0.725c-0.242,0.435-0.599,0.751-0.963,1.023
							C189.025,135.332,188.633,135.555,188.217,135.719z"/>
					</g>
					<g>
						<path style="fill:#1F2136;" d="M164.395,124.019c0,0,0.024-0.225,0.086-0.612c0.044-0.192,0.046-0.429,0.151-0.689
							c0.1-0.263,0.218-0.569,0.371-0.9c0.2-0.288,0.393-0.637,0.68-0.94c0.305-0.285,0.614-0.624,1.048-0.827
							c0.396-0.257,0.885-0.403,1.379-0.501c0.254-0.02,0.512-0.054,0.771-0.054l0.778,0.11c0.252,0.071,0.495,0.18,0.739,0.273
							c0.244,0.095,0.444,0.277,0.661,0.415c0.227,0.13,0.375,0.349,0.546,0.531c0.179,0.18,0.31,0.387,0.417,0.604
							c0.271,0.407,0.354,0.862,0.455,1.273c0.071,0.414,0.048,0.813,0.046,1.166c-0.058,0.351-0.128,0.665-0.19,0.938
							c-0.064,0.272-0.193,0.489-0.265,0.673c-0.165,0.362-0.27,0.556-0.27,0.556s-0.004-0.233,0.005-0.617
							c-0.002-0.192,0.03-0.42,0.012-0.679c-0.028-0.261-0.059-0.547-0.075-0.852c-0.083-0.296-0.144-0.618-0.249-0.93
							c-0.143-0.301-0.264-0.621-0.485-0.886c-0.088-0.147-0.195-0.282-0.335-0.386c-0.136-0.105-0.235-0.254-0.397-0.326
							c-0.283-0.201-0.608-0.327-0.943-0.431l-0.52-0.084l-0.528,0.014c-0.342,0.062-0.706,0.093-1.016,0.263
							c-0.333,0.115-0.611,0.324-0.898,0.503c-0.265,0.204-0.489,0.445-0.728,0.642c-0.177,0.237-0.361,0.452-0.529,0.651
							c-0.165,0.2-0.268,0.427-0.377,0.585C164.525,123.834,164.395,124.019,164.395,124.019z"/>
					</g>
					<g>
						<path style="fill:#1F2136;" d="M146.37,120.449c0,0,0.023-0.221,0.084-0.6c0.041-0.188,0.05-0.421,0.143-0.677
							c0.096-0.258,0.209-0.557,0.354-0.882c0.178-0.296,0.378-0.624,0.636-0.939c0.299-0.277,0.577-0.633,1-0.841
							c0.382-0.262,0.851-0.429,1.337-0.541l0.76-0.07l0.773,0.096c0.251,0.066,0.491,0.18,0.732,0.274
							c0.238,0.102,0.437,0.278,0.65,0.418c0.226,0.129,0.36,0.357,0.528,0.537c0.175,0.18,0.283,0.397,0.389,0.609
							c0.258,0.406,0.308,0.86,0.406,1.261c0.039,0.408,0.032,0.797,0.007,1.14c-0.061,0.342-0.133,0.649-0.197,0.914
							c-0.072,0.264-0.194,0.477-0.267,0.656c-0.164,0.354-0.267,0.544-0.267,0.544s-0.003-0.228,0.009-0.605
							c0.001-0.189,0.028-0.413,0.021-0.668c-0.024-0.257-0.051-0.539-0.063-0.84c-0.059-0.296-0.135-0.609-0.212-0.926
							c-0.142-0.295-0.236-0.624-0.448-0.886c-0.159-0.299-0.438-0.506-0.688-0.718c-0.147-0.079-0.271-0.2-0.43-0.256
							c-0.162-0.048-0.315-0.121-0.477-0.161l-0.503-0.083l-0.514,0.03c-0.331,0.081-0.682,0.122-0.983,0.299
							c-0.326,0.118-0.586,0.35-0.87,0.524c-0.247,0.233-0.481,0.453-0.696,0.656c-0.173,0.236-0.353,0.45-0.516,0.648
							c-0.156,0.204-0.26,0.421-0.366,0.578C146.498,120.268,146.37,120.449,146.37,120.449z"/>
					</g>
					<g>
						<path style="fill:#FC6A5A;" d="M150.72,138.505c0,0,1.006,0.653,2.559,1.429c0.395,0.183,0.811,0.394,1.267,0.581
							c0.446,0.208,0.938,0.37,1.435,0.558c0.496,0.192,1.035,0.303,1.561,0.469c0.543,0.093,1.082,0.273,1.64,0.295l0.828,0.105
							c0.276,0.022,0.552,0.007,0.825,0.013c0.273-0.011,0.547,0.025,0.813-0.004c0.267-0.027,0.531-0.054,0.791-0.081
							c0.527-0.026,1.015-0.166,1.491-0.263c0.482-0.083,0.917-0.232,1.32-0.379c0.398-0.155,0.798-0.237,1.112-0.397
							c0.323-0.149,0.604-0.28,0.836-0.387c0.48-0.205,0.755-0.323,0.755-0.323s-0.213,0.203-0.609,0.546
							c-0.202,0.169-0.448,0.375-0.73,0.611c-0.282,0.241-0.659,0.42-1.051,0.653c-0.2,0.113-0.408,0.231-0.623,0.353
							c-0.219,0.117-0.468,0.181-0.713,0.279c-0.497,0.175-1.017,0.405-1.596,0.472c-0.57,0.107-1.163,0.237-1.777,0.214
							c-0.305,0.002-0.615,0.024-0.923,0.008l-0.924-0.092c-0.622-0.047-1.209-0.253-1.803-0.376
							c-0.575-0.185-1.139-0.384-1.658-0.623c-1.048-0.464-1.947-1.04-2.67-1.582C151.423,139.495,150.72,138.505,150.72,138.505z"
							/>
					</g>
				</g>
				<g>
					<path style="fill:none;stroke:#4073AB;stroke-miterlimit:10;" d="M138.969,116.244c-0.85,4.299,1.946,8.474,6.246,9.324
						c4.299,0.85,8.474-1.946,9.324-6.246c0.85-4.299-1.947-8.474-6.246-9.324C143.994,109.148,139.819,111.945,138.969,116.244z"/>
					<path style="fill:none;stroke:#4073AB;stroke-miterlimit:10;" d="M159.076,122.334c-0.85,4.3,1.946,8.474,6.246,9.324
						c4.299,0.85,8.474-1.946,9.324-6.246c0.85-4.299-1.946-8.474-6.246-9.324C164.1,115.238,159.926,118.035,159.076,122.334z"/>
					<path style="fill:none;stroke:#4073AB;stroke-miterlimit:10;" d="M153.968,121.228c0,0,3.435-3.388,5.108,1.106"/>
					<line style="fill:none;stroke:#4073AB;stroke-miterlimit:10;" x1="187.519" y1="125.939" x2="174.415" y2="124.683"/>
				</g>
			</g>
		</g>
		<g>
			<g>
				<g>
					<path style="fill:#4073AB;" d="M123.405,431.722l-1.909,34.798c0,0-58.974,12.128-11.02-4.96l3.865-47.669L123.405,431.722z"/>
					<path style="fill:#002E46;" d="M108.93,460.641l1.486,3.628l13.069-2.058l-0.776,4.944
						C122.709,467.155,56.315,481.499,108.93,460.641z"/>
				</g>
				<g>
					<path style="fill:#4073AB;" d="M172.669,431.722l1.909,34.798c0,0,58.974,12.128,11.02-4.96l-3.865-47.669L172.669,431.722z"/>
					<path style="fill:#002E46;" d="M187.143,460.641l-1.486,3.628l-13.069-2.058l0.776,4.944
						C173.364,467.155,239.758,481.499,187.143,460.641z"/>
				</g>
			</g>
			<g>
				<path style="fill:#FFFFFF;" d="M126.31,250.475c0,0-7.045,19.665-7.883,38.624c0,0,5.129,8.762,28.718,17.302
					c0,0,14.732,123.813,17.093,148.655c0,0,18.498,0.955,27.236-1.333c0,0,5.836-153.333-5.836-194.667L126.31,250.475z"/>
				<path style="fill:#FFFFFF;" d="M178.174,248.161c0,0,5.564,12.768,4.535,34.788c0,0-7.003,18.133-30.355,27.336
					c0,0-15.352,111.437-22.485,142.103c0,0-17.143,2.04-25.939,0c0,0,1.685-153.754,20.256-193.006L178.174,248.161z"/>
				<path style="opacity:0.1;fill:#061B38;" d="M115.082,293.764c-10.061,59.374-11.151,158.624-11.151,158.624
					c8.796,2.04,25.939,0,25.939,0c6.208-26.687,18.637-114.526,21.759-136.879C138.199,310.329,125.896,303.627,115.082,293.764z"
					/>
			</g>
		</g>
		<g>
			<g>
				<path style="fill:none;stroke:#4073AB;stroke-width:2;stroke-miterlimit:10;" d="M194.36,260.424c0,0,18.271-17.698,27.16-9.203
					C230.409,259.716,194.36,260.424,194.36,260.424z"/>
				<path style="fill:none;stroke:#4073AB;stroke-width:2;stroke-miterlimit:10;" d="M193.158,260.925
					c0,0,20.779,9.642,28.239,3.087C228.856,257.458,193.158,260.925,193.158,260.925z"/>
				<path style="fill:none;stroke:#4073AB;stroke-width:2;stroke-miterlimit:10;" d="M211.027,306.388
					c0,0-2.667-31.333-13.333-44.667c0,0,8.667,30,4.667,52"/>
			</g>
			<g>
				<g>
					<path style="fill:#F19C7C;" d="M53.789,162.871c0,0-29.14-44.921-7.328-16.291c0,0-16.114-26.591,2.069-2.431
						c0,0-16.615-26.984,3.13-1.923c0,0-15.102-24.986,5.254,1.365c0,0,9.632-20.337,3.206,3.975l6.729,9.821L53.789,162.871z"/>
					<g>
						<path style="fill:#124D5B;" d="M145.36,183.555c0.435-5.733,0.354-11.492,0.67-17.232c0.101-1.831,0.203-3.78,0.357-5.783
							c-10.271,0.389-21.893,1.056-26.205,2.161c-8.379,2.146-31.227,17.116-31.227,17.116l-21.622-28.535l-19.894,9.809
							c0,0,26.381,41.928,31.622,45.964c5.24,4.036,48.65-12.506,59.029-17.135c2.207-0.985,4.673-2.906,7.188-5.313
							C145.305,184.256,145.333,183.905,145.36,183.555z"/>
						<path style="opacity:0.2;fill:#161826;" d="M145.36,183.555c0.435-5.733,0.354-11.492,0.67-17.232
							c0.101-1.831,0.203-3.78,0.357-5.783c-10.271,0.389-21.893,1.056-26.205,2.161c-8.379,2.146-31.227,17.116-31.227,17.116
							l-21.622-28.535l-19.894,9.809c0,0,26.381,41.928,31.622,45.964c5.24,4.036,48.65-12.506,59.029-17.135
							c2.207-0.985,4.673-2.906,7.188-5.313C145.305,184.256,145.333,183.905,145.36,183.555z"/>
						<path style="fill:#FFFFFF;" d="M48.507,162.808c-0.676-1.084-1.067-1.717-1.067-1.717l19.894-9.809l1.261,1.664
							L48.507,162.808z"/>
					</g>
				</g>
				<g>
					<path style="fill:#F19C7C;" d="M273.368,175.632c0,0,34.699-40.78,9.371-15.208c0,0,19.414-24.286-1.738-2.678
						c0,0,19.962-24.612-2.856-2.311c0,0,18.203-22.826-5.386,0.675c0,0-6.924-21.411-3.693,3.528l-7.941,8.869L273.368,175.632z"/>
					<g>
						<path style="fill:#124D5B;" d="M167.772,159.709c0,0,8.813,25.923,18.507,31.855c9.694,5.932,50.603,27.943,56.321,24.617
							c5.718-3.325,37.294-41.494,37.294-41.494l-18.46-12.296l-25.127,25.503c0,0-20.723-17.797-28.754-21.007
							C199.522,163.676,167.772,159.709,167.772,159.709z"/>
						<path style="fill:#124D5B;" d="M261.434,162.391l-25.127,25.503c0,0-20.723-17.797-28.754-21.007
							c-4.979-1.99-20.563-4.724-31.692-6.515c-0.682,5.151-1.636,10.267-2.664,15.376c4.065,6.629,8.858,13.232,13.081,15.816
							c9.694,5.932,50.603,27.942,56.321,24.617c5.718-3.325,37.294-41.494,37.294-41.494L261.434,162.391z"/>
						<path style="fill:#FFFFFF;" d="M278.615,176.252c0.81-0.988,1.28-1.565,1.28-1.565l-18.46-12.296l-1.465,1.487
							L278.615,176.252z"/>
					</g>
				</g>
				<g>
					<path style="fill:#124D5B;" d="M196.443,293.638c-6.786,4.371-12.537,5.551-19.86,5.644
						c-10.651,0.135-21.486-0.471-32.097-1.371c-2.04-0.173-4.066-0.383-6.081-0.619l0.753-23l-3.436,22.652
						c-9.196-1.214-13.742-4.14-22.386-6.786c4.83-36.991,6.757-94.513,14.486-128.718l19.894-2.067l0.673-5.176l9.083,1.228
						l1.872,1.943l-0.711,10.994l4.166,2.602l2.121-12.051l2.286-1.256l14.335-0.426l-0.003,5.522l25.767,5.211
						C207.303,167.963,195.66,254.481,196.443,293.638z"/>
					<g>
						<path style="fill:none;stroke:#FFFFFF;stroke-width:1.085;stroke-miterlimit:10;" d="M181.539,157.23
							c-7.372,0.101-6.91,0.511-14.243,0.204c-1.048-0.044-2.139,0.96-2.183,2.007c-0.671,3.405-1.272,6.746-1.838,10.042
							c-0.492,2.864-6.73-3.552-7.19-0.747c-1.114,6.795-17.059,92.318-17.68,128.555"/>
						<path style="fill:none;stroke:#FFFFFF;stroke-width:0.8333;stroke-miterlimit:10;" d="M148.388,154.196
							c1.822,0.339,4.427,0.402,8.674,1.239c1.691,0.333,2.356,1.851,2.204,2.888c-0.188,3.409-0.405,6.748-0.635,10.038"/>
						<g>
							<path style="fill:#FFFFFF;" d="M161.412,175.036c-0.039,0.938-0.831,1.667-1.77,1.627s-1.667-0.831-1.627-1.77
								c0.039-0.938,0.831-1.667,1.77-1.627C160.723,173.306,161.451,174.098,161.412,175.036z"/>
							<path style="fill:#FFFFFF;" d="M157.027,199.722c-0.039,0.938-0.832,1.667-1.77,1.627c-0.938-0.039-1.666-0.832-1.627-1.77
								c0.039-0.938,0.831-1.667,1.77-1.627C156.337,197.991,157.066,198.784,157.027,199.722z"/>
							<path style="fill:#FFFFFF;" d="M152.058,229.126c-0.039,0.938-0.831,1.667-1.77,1.627c-0.938-0.039-1.667-0.831-1.627-1.77
								c0.039-0.938,0.831-1.667,1.77-1.627C151.369,227.396,152.098,228.188,152.058,229.126z"/>
						</g>
					</g>
				</g>
			</g>
			<g>
				<path style="fill:#4073AB;" d="M115.693,253.722c0,0-18,83.333-18.667,140.667c0,0,31.333,8.667,79.333,6.667l-2.667-136
					l24.667-4v-2.667C198.36,258.388,170.36,263.722,115.693,253.722z"/>
				<g>
					<defs>
						<path id="SVGID_1_" d="M115.693,253.722c0,0-18,83.333-18.667,140.667c0,0,31.333,8.667,79.333,6.667l-2.667-136l24.667-4
							v-2.667C198.36,258.388,170.36,263.722,115.693,253.722z"/>
					</defs>
					<clipPath id="SVGID_00000152977663860145950840000009864908229070964362_">
						<use xlink:href="#SVGID_1_"  style="overflow:visible;"/>
					</clipPath>
					<g style="clip-path:url(#SVGID_00000152977663860145950840000009864908229070964362_);">
						<g>
							<path style="fill:none;stroke:#FFFFFF;stroke-miterlimit:10;" d="M119.574,252.842c0,0-18.352,85.039-20.428,149.758"/>
							<path style="fill:none;stroke:#FFFFFF;stroke-miterlimit:10;" d="M124.241,252.842c0,0-18.352,85.039-20.428,149.758"/>
							<path style="fill:none;stroke:#FFFFFF;stroke-miterlimit:10;" d="M129.574,253.509c0,0-18.352,85.039-20.428,149.758"/>
							<path style="fill:none;stroke:#FFFFFF;stroke-miterlimit:10;" d="M134.241,253.509c0,0-18.352,85.039-20.428,149.758"/>
						</g>
						<g>
							<path style="fill:none;stroke:#FFFFFF;stroke-miterlimit:10;" d="M138.241,257.509c0,0-18.352,85.039-20.428,149.758"/>
							<path style="fill:none;stroke:#FFFFFF;stroke-miterlimit:10;" d="M142.908,257.509c0,0-18.352,85.039-20.428,149.758"/>
							<path style="fill:none;stroke:#FFFFFF;stroke-miterlimit:10;" d="M148.241,258.176c0,0-18.352,85.039-20.428,149.758"/>
							<path style="fill:none;stroke:#FFFFFF;stroke-miterlimit:10;" d="M152.908,258.176c0,0-18.352,85.039-20.428,149.758"/>
						</g>
						<g>
							<path style="fill:none;stroke:#FFFFFF;stroke-miterlimit:10;" d="M156.463,254.276c0,0-17.131,85.293-18.279,150.036"/>
							<path style="fill:none;stroke:#FFFFFF;stroke-miterlimit:10;" d="M161.129,254.209c0,0-17.131,85.294-18.279,150.036"/>
							<path style="fill:none;stroke:#FFFFFF;stroke-miterlimit:10;" d="M166.472,254.799c0,0-17.131,85.293-18.279,150.036"/>
							<path style="fill:none;stroke:#FFFFFF;stroke-miterlimit:10;" d="M171.138,254.733c0,0-17.131,85.293-18.279,150.036"/>
						</g>
						<g>
							<path style="fill:none;stroke:#FFFFFF;stroke-miterlimit:10;" d="M175.195,258.675c0,0-17.131,85.294-18.279,150.036"/>
							<path style="fill:none;stroke:#FFFFFF;stroke-miterlimit:10;" d="M179.861,258.608c0,0-17.131,85.293-18.279,150.036"/>
							<path style="fill:none;stroke:#FFFFFF;stroke-miterlimit:10;" d="M185.203,259.198c0,0-17.131,85.294-18.279,150.036"/>
							<path style="fill:none;stroke:#FFFFFF;stroke-miterlimit:10;" d="M189.869,259.131c0,0-17.131,85.294-18.279,150.036"/>
						</g>
					</g>
				</g>
			</g>
		</g>
	</g>
</g>
</svg>
